<svg width="31" height="31" viewBox="0 0 31 31" fill="none" xmlns="http://www.w3.org/2000/svg">
<path id="Vector" fill-rule="evenodd" clip-rule="evenodd" d="M8.13761 0.601121C10.1506 0.15376 12.5927 0 15.5 0C18.4073 0 20.8494 0.15376 22.8623 0.601121C24.893 1.0524 26.5806 1.8228 27.8789 3.12105C29.1772 4.4193 29.9475 6.10703 30.3989 8.13761C30.8462 10.1506 31 12.5927 31 15.5C31 18.4073 30.8462 20.8494 30.3989 22.8623C29.9475 24.893 29.1772 26.5806 27.8789 27.8789C26.5806 29.1772 24.893 29.9475 22.8623 30.3989C20.8494 30.8462 18.4073 31 15.5 31C12.5927 31 10.1506 30.8462 8.13761 30.3989C6.10703 29.9475 4.4193 29.1772 3.12105 27.8789C1.8228 26.5806 1.0524 24.893 0.601121 22.8623C0.15376 20.8494 0 18.4073 0 15.5C0 12.5927 0.15376 10.1506 0.601121 8.13761C1.0524 6.10703 1.8228 4.4193 3.12105 3.12105C4.4193 1.8228 6.10703 1.0524 8.13761 0.601121ZM10.85 14.725C10.85 12.5849 12.5849 10.85 14.725 10.85C16.8651 10.85 18.6 12.5849 18.6 14.725C18.6 16.8651 16.8651 18.6 14.725 18.6C12.5849 18.6 10.85 16.8651 10.85 14.725ZM14.725 7.75C10.8728 7.75 7.75 10.8728 7.75 14.725C7.75 18.5772 10.8728 21.7 14.725 21.7C16.0898 21.7 17.3631 21.308 18.4383 20.6305L20.604 22.796C21.2093 23.4013 22.1907 23.4013 22.796 22.796C23.4013 22.1907 23.4013 21.2093 22.796 20.604L20.6305 18.4383C21.308 17.3631 21.7 16.0898 21.7 14.725C21.7 10.8728 18.5772 7.75 14.725 7.75Z" fill="#E2E1FE"/>
</svg>
